Coordinates
version=1
nRows=10
nColumns=40
inDegrees=yes

Units are S.I. units (second, meters, Newtons, ...)
If the header above contains a line with 'inDegrees', this indicates whether rotational values are in degrees (yes) or radians (no).

endheader
time	pelvis_tilt	pelvis_list	pelvis_rotation	pelvis_tx	pelvis_ty	pelvis_tz	hip_flexion_r	hip_adduction_r	hip_rotation_r	knee_angle_r	knee_angle_r_beta	ankle_angle_r	subtalar_angle_r	mtp_angle_r	hip_flexion_l	hip_adduction_l	hip_rotation_l	knee_angle_l	knee_angle_l_beta	ankle_angle_l	subtalar_angle_l	mtp_angle_l	lumbar_extension	lumbar_bending	lumbar_rotation	arm_flex_r	arm_add_r	arm_rot_r	elbow_flex_r	pro_sup_r	wrist_flex_r	wrist_dev_r	arm_flex_l	arm_add_l	arm_rot_l	elbow_flex_l	pro_sup_l	wrist_flex_l	wrist_dev_l
      2.16000000	      7.81789363	     -6.10496425	      3.04976910	      0.16458306	      0.44959120	     -1.23435364	     78.48682824	    -48.49087308	     18.80083653	    122.20373760	      2.13285758	     36.79778271	     17.96610226	      0.00000000	     95.34540460	    -42.72293344	     35.41982569	    125.60091362	      2.19214949	     37.06910756	     22.82104104	      0.00000000	      0.00000000	      0.00000000	      0.00000000	     44.99539843	    -15.00051859	     44.99539843	     75.00020194	     44.99999802	      0.00000000	      0.00000000	     44.99539843	    -15.00051859	     44.99539843	     75.00020194	     44.99999802	      0.00000000	      0.00000000
      2.16500000	      7.90450994	     -6.10301275	      3.05943085	      0.16460570	      0.44925498	     -1.23434921	     78.46903013	    -48.51217867	     18.87649593	    122.26013046	      2.13384182	     36.81056497	     18.01859563	      0.00000000	     95.33120924	    -42.72490496	     35.49666663	    125.66421499	      2.19325430	     37.08922899	     22.84678163	      0.00000000	      0.00000000	      0.00000000	      0.00000000	     44.99582736	    -15.00044899	     44.99582736	     75.00019688	     44.99999869	      0.00000000	      0.00000000	     44.99582736	    -15.00044899	     44.99582736	     75.00019688	     44.99999869	      0.00000000	      0.00000000
      2.17000000	      7.99595238	     -6.09895700	      3.05020361	      0.16464124	      0.44894522	     -1.23428949	     78.44314435	    -48.50797938	     18.95393702	    122.31957856	      2.13487939	     36.83432331	     18.04823707	      0.00000000	     95.30658098	    -42.75208164	     35.57482850	    125.72144400	      2.19425314	     37.12273276	     22.88152046	      0.00000000	      0.00000000	      0.00000000	      0.00000000	     44.99621835	    -15.00038837	     44.99621835	     75.00019278	     44.99999915	      0.00000000	      0.00000000	     44.99621835	    -15.00038837	     44.99621835	     75.00019278	     44.99999915	      0.00000000	      0.00000000
      2.17500000	      8.10209584	     -6.10301781	      3.06292815	      0.16464477	      0.44864138	     -1.23427930	     78.37391590	    -48.52290665	     19.00066743	    122.37467231	      2.13584095	     36.90731766	     18.05880576	      0.00000000	     95.27486072	    -42.74873374	     35.66312068	    125.77955330	      2.19526734	     37.13396907	     22.93177899	      0.00000000	      0.00000000	      0.00000000	      0.00000000	     44.99657382	    -15.00033564	     44.99657382	     75.00018946	     44.99999948	      0.00000000	      0.00000000	     44.99657382	    -15.00033564	     44.99657382	     75.00018946	     44.99999948	      0.00000000	      0.00000000
      2.18000000	      8.18541772	     -6.09843106	      3.05065160	      0.16469137	      0.44830988	     -1.23423030	     78.36939309	    -48.51950069	     19.09174919	    122.43291203	      2.13685743	     36.90444728	     18.11809885	      0.00000000	     95.25435201	    -42.77167967	     35.73375810	    125.84073340	      2.19633513	     37.16836718	     22.90741287	      0.00000000	      0.00000000	      0.00000000	      0.00000000	     44.99692412	    -15.00028583	     44.99692412	     75.00018651	     44.99999974	      0.00000000	      0.00000000	     44.99692412	    -15.00028583	     44.99692412	     75.00018651	     44.99999974	      0.00000000	      0.00000000
      2.18500000	      8.28525448	     -6.09834861	      3.05504748	      0.16469977	      0.44800367	     -1.23420092	     78.32326741	    -48.52904602	     19.15854364	    122.48962775	      2.13784730	     36.93966758	     18.17261030	      0.00000000	     95.21490661	    -42.77122487	     35.81173913	    125.89740634	      2.19732426	     37.20223900	     22.91972626	      0.00000000	      0.00000000	      0.00000000	      0.00000000	     44.99727879	    -15.00023805	     44.99727879	     75.00018395	     44.99999992	      0.00000000	      0.00000000	     44.99727879	    -15.00023805	     44.99727879	     75.00018395	     44.99999992	      0.00000000	      0.00000000
      2.19000000	      8.31520564	     -5.82557852	      2.96220847	      0.16478357	      0.44742108	     -1.23372442	     78.82106518	    -48.50770333	     19.81495650	    122.62054894	      2.14013231	     36.98120216	     18.32242571	      0.00000000	     94.95327191	    -42.88964208	     35.49470487	    125.95899752	      2.19839923	     37.23264301	     22.88644068	      0.00000000	      0.00000000	      0.00000000	      0.00000000	     44.99754018	    -15.00020511	     44.99754018	     75.00018236	     45.00000002	      0.00000000	      0.00000000	     44.99754018	    -15.00020511	     44.99754018	     75.00018236	     45.00000002	      0.00000000	      0.00000000
      2.19500000	      8.44929832	     -6.08448061	      3.07927527	      0.16476883	      0.44724648	     -1.23418543	     78.30745056	    -48.57272542	     19.34639472	    122.61167527	      2.13997743	     37.01711225	     18.30046713	      0.00000000	     95.16126826	    -42.72775287	     35.94878132	    126.03007693	      2.19963980	     37.25236987	     22.89352868	      0.00000000	      0.00000000	      0.00000000	      0.00000000	     44.99785588	    -15.00016732	     44.99785588	     75.00018070	     45.00000010	      0.00000000	      0.00000000	     44.99785588	    -15.00016732	     44.99785588	     75.00018070	     45.00000010	      0.00000000	      0.00000000
      2.20000000	      8.45629098	     -5.94306833	      2.98286865	      0.16487033	      0.44659650	     -1.23383281	     78.67112579	    -48.51739555	     19.76209270	    122.73422735	      2.14211637	     37.01293400	     18.30274835	      0.00000000	     95.09416272	    -42.82523162	     35.85865607	    126.10346581	      2.20092068	     37.28266851	     22.91139121	      0.00000000	      0.00000000	      0.00000000	      0.00000000	     44.99801041	    -15.00014992	     44.99801041	     75.00017999	     45.00000013	      0.00000000	      0.00000000	     44.99801041	    -15.00014992	     44.99801041	     75.00017999	     45.00000013	      0.00000000	      0.00000000
      2.20500000	      8.68079261	     -6.09634123	      3.05086057	      0.16482889	      0.44669295	     -1.23406927	     78.16473744	    -48.54641229	     19.45541123	    122.72647576	      2.14198108	     37.07779583	     18.33837007	      0.00000000	     95.04970493	    -42.77666942	     36.13544281	    126.14139734	      2.20158271	     37.33454677	     22.93517993	      0.00000000	      0.00000000	      0.00000000	      0.00000000	     44.99818655	    -15.00013052	     44.99818655	     75.00017922	     45.00000017	      0.00000000	      0.00000000	     44.99818655	    -15.00013052	     44.99818655	     75.00017922	     45.00000017	      0.00000000	      0.00000000
